<svg xmlns="http://www.w3.org/2000/svg" width="160" height="160" viewBox="0 0 120 120">
  <defs>
    <linearGradient id="g" x1="0" y1="0" x2="1" y2="1">
      <stop offset="0%" stop-color="#0d9488"/>
      <stop offset="100%" stop-color="#0891b2"/>
    </linearGradient>
  </defs>
  <circle cx="60" cy="60" r="56" fill="url(#g)" opacity="0.12"/>
  <circle cx="60" cy="60" r="54" fill="none" stroke="url(#g)" stroke-width="0.5" opacity="0.3"/>
  <path d="M60 25 L75 55 L85 50 L60 85 L35 50 L45 55 Z" fill="url(#g)" opacity="0.9"/>
  <path d="M60 35 Q68 45 72 52" fill="none" stroke="url(#g)" stroke-width="2" stroke-linecap="round" opacity="0.5"/>
  <path d="M60 35 Q52 45 48 52" fill="none" stroke="url(#g)" stroke-width="2" stroke-linecap="round" opacity="0.5"/>
  <circle cx="52" cy="38" r="2" fill="url(#g)" opacity="0.7"/>
  <circle cx="68" cy="38" r="2" fill="url(#g)" opacity="0.7"/>
  <circle cx="60" cy="60" r="2.5" fill="url(#g)"/>
  <circle cx="50" cy="55" r="1.5" fill="url(#g)" opacity="0.6"/>
  <circle cx="70" cy="55" r="1.5" fill="url(#g)" opacity="0.6"/>
  <path d="M50 72 Q55 78 60 72 Q65 78 70 72" fill="none" stroke="url(#g)" stroke-width="1.2" stroke-linecap="round" opacity="0.4"/>
</svg>
